name D:\school\WTK\thesis\model\3dpredictsim\Results\batch_windlass\Pog_s1_tmt_aCst_d05_k1000_WL10_ig24_pas.mot
datacolumns 128
datarows 4
range 1.61677656 1.64911209
endheader
time	pelvis_tilt	pelvis_list	pelvis_rotation	pelvis_tx	pelvis_ty	pelvis_tz	hip_flexion_l	hip_adduction_l	hip_rotation_l	hip_flexion_r	hip_adduction_r	hip_rotation_r	knee_angle_l	knee_angle_r	ankle_angle_l	ankle_angle_r	subtalar_angle_l	subtalar_angle_r	tmt_angle_l	tmt_angle_r	mtp_angle_l	mtp_angle_r	lumbar_extension	lumbar_bending	lumbar_rotation	arm_flex_l	arm_add_l	arm_rot_l	arm_flex_r	arm_add_r	arm_rot_r	elbow_flex_l	elbow_flex_r	pro_sup_l	pro_sup_r	glut_med1_l/activation	glut_med2_l/activation	glut_med3_l/activation	glut_min1_l/activation	glut_min2_l/activation	glut_min3_l/activation	semimem_l/activation	semiten_l/activation	bifemlh_l/activation	bifemsh_l/activation	sar_l/activation	add_long_l/activation	add_brev_l/activation	add_mag1_l/activation	add_mag2_l/activation	add_mag3_l/activation	tfl_l/activation	pect_l/activation	grac_l/activation	glut_max1_l/activation	glut_max2_l/activation	glut_max3_l/activation	iliacus_l/activation	psoas_l/activation	quad_fem_l/activation	gem_l/activation	peri_l/activation	rect_fem_l/activation	vas_med_l/activation	vas_int_l/activation	vas_lat_l/activation	med_gas_l/activation	lat_gas_l/activation	soleus_l/activation	tib_post_l/activation	flex_dig_l/activation	flex_hal_l/activation	tib_ant_l/activation	per_brev_l/activation	per_long_l/activation	per_tert_l/activation	ext_dig_l/activation	ext_hal_l/activation	ercspn_l/activation	intobl_l/activation	extobl_l/activation	glut_med1_r/activation	glut_med2_r/activation	glut_med3_r/activation	glut_min1_r/activation	glut_min2_r/activation	glut_min3_r/activation	semimem_r/activation	semiten_r/activation	bifemlh_r/activation	bifemsh_r/activation	sar_r/activation	add_long_r/activation	add_brev_r/activation	add_mag1_r/activation	add_mag2_r/activation	add_mag3_r/activation	tfl_r/activation	pect_r/activation	grac_r/activation	glut_max1_r/activation	glut_max2_r/activation	glut_max3_r/activation	iliacus_r/activation	psoas_r/activation	quad_fem_r/activation	gem_r/activation	peri_r/activation	rect_fem_r/activation	vas_med_r/activation	vas_int_r/activation	vas_lat_r/activation	med_gas_r/activation	lat_gas_r/activation	soleus_r/activation	tib_post_r/activation	flex_dig_r/activation	flex_hal_r/activation	tib_ant_r/activation	per_brev_r/activation	per_long_r/activation	per_tert_r/activation	ext_dig_r/activation	ext_hal_r/activation	ercspn_r/activation	intobl_r/activation	extobl_r/activation	
          1.61677656	         -2.92571871	          1.62344020	         -5.94365802	          2.02097070	          0.85486141	          0.00266525	         32.60701701	          2.19583635	         -3.65140696	        -19.13813270	         -1.49462990	          8.04638565	        -19.54575096	         -7.43155808	          0.00321908	         -0.69412889	         -2.16945331	         10.40060267	          0.01573108	         -1.49837391	          0.16888942	         25.53851661	         -1.40326502	          0.18048990	          1.79958183	         -7.45973823	        -13.62693788	          8.76997156	          5.32584663	        -13.46554398	         16.05516571	         16.29356009	         33.96289442	         86.51662706	         86.51662706	          0.05000022	          0.05000015	          0.05898191	          0.05000010	          0.05000013	          0.05000036	          0.05000019	          0.05898213	          0.22132724	          0.05000456	          0.05077839	          0.10433898	          0.15985761	          0.18382923	          0.16741498	          0.12896380	          0.05021940	          0.05000267	          0.05898236	          0.05898202	          0.10428481	          0.11425792	          0.06664188	          0.06769876	          0.21912686	          0.05000015	          0.05000014	          0.06000112	          0.11139995	          0.11681634	          0.09544376	          0.06270920	          0.05449205	          0.05000008	          0.05000003	          0.05898216	          0.05898210	          0.40767132	          0.33824698	          0.18508604	          0.18817917	          0.54341576	          0.11788880	          0.05927897	          0.11874964	          0.11421448	          0.27153666	          0.08927096	          0.05580060	          0.32669483	          0.19895836	          0.09682089	          0.05000146	          0.05000014	          0.05000011	          0.08129527	          0.09896704	          0.09582998	          0.05000020	          0.05000025	          0.05000066	          0.05000080	          0.31580010	          0.05000140	          0.05000039	          0.05000213	          0.05000143	          0.05000101	          0.39841121	          0.60812550	          0.05000017	          0.05000081	          0.05000020	          0.25457549	          0.06914346	          0.10932507	          0.05000145	          0.32972957	          0.42908234	          0.27982609	          0.25747662	          0.24655108	          0.34061423	          0.05000000	          0.07894597	          0.17664880	          0.05000006	          0.05000001	          0.05000005	          0.05000000	          0.05000002	          0.05000001	
          1.62755507	         -2.91638888	          1.73665353	         -6.24353879	          2.03741069	          0.85368899	          0.00248575	         32.07615930	          2.61280254	         -3.43273961	        -18.95897985	         -1.83784634	          7.86782224	        -19.21848662	         -9.39210403	         -0.42826338	         -1.55655778	         -2.84776371	         11.46380359	          0.00877428	         -1.87310129	          0.26294265	         26.60221365	         -1.19458394	         -0.06764068	          1.87109656	         -8.51724218	        -13.62794184	          8.55460220	          5.09343798	        -13.49067208	         16.37726935	         16.16758207	         35.05804363	         86.51662706	         86.51662706	          0.05898185	          0.05898197	          0.05000004	          0.05898215	          0.05898212	          0.05000263	          0.05000013	          0.05000008	          0.21342632	          0.05000002	          0.05000011	          0.09682145	          0.23417267	          0.15583519	          0.17659990	          0.14094210	          0.05000007	          0.08207186	          0.05000037	          0.05000010	          0.11727892	          0.16319219	          0.05898155	          0.05738930	          0.29762876	          0.15336180	          0.11354419	          0.06737202	          0.19253709	          0.18773028	          0.16098986	          0.05315956	          0.05000007	          0.05000008	          0.05000002	          0.05000012	          0.05000015	          0.56533930	          0.28673704	          0.15690021	          0.48486953	          0.60775516	          0.26243208	          0.05025168	          0.10066585	          0.09682132	          0.23018612	          0.07567634	          0.05000002	          0.27694417	          0.16866000	          0.08207653	          0.05000052	          0.05000006	          0.05000005	          0.06891522	          0.08389593	          0.14648051	          0.14880263	          0.05000122	          0.05000073	          0.05000019	          0.26770861	          0.11343209	          0.05000073	          0.05000052	          0.05000031	          0.05000022	          0.33773917	          0.55954499	          0.05000005	          0.05000020	          0.05000017	          0.21580747	          0.05861490	          0.09584623	          0.15893536	          0.27951668	          0.36373951	          0.23721276	          0.21826684	          0.20900519	          0.28874386	          0.05000000	          0.06692372	          0.14974799	          0.05000003	          0.05000000	          0.05000003	          0.05000003	          0.05000007	          0.05000003	
          1.63833358	         -2.90206206	          1.85526360	         -6.51651164	          2.05415209	          0.85246084	          0.00230341	         31.42055540	          3.01726947	         -3.13583764	        -18.67261554	         -2.17118696	          7.67656090	        -19.51472224	        -11.54644000	         -0.84445808	         -2.56058309	         -3.54896735	         12.47816830	         -0.01880296	         -2.21765191	          0.39223813	         27.44314008	         -0.96211773	         -0.32821664	          1.93402760	         -9.59692019	        -13.63157544	          8.37549965	          4.77899847	        -13.52528781	         16.64016465	         16.07663720	         36.14698367	         86.51662706	         86.51662706	          0.05000001	          0.05000004	          0.15868782	          0.05000007	          0.05000006	          0.05000006	          0.05000007	          0.05000014	          0.18092470	          0.05000017	          0.05007566	          0.08207703	          0.19851174	          0.27738057	          0.22520363	          0.16759654	          0.05000020	          0.06957510	          0.11876276	          0.12503677	          0.15442506	          0.13834069	          0.05000034	          0.05000529	          0.31863675	          0.13000712	          0.09625314	          0.05898208	          0.24511788	          0.24398176	          0.21046477	          0.05898211	          0.05898210	          0.05000001	          0.05000001	          0.05805605	          0.05000046	          0.50653285	          0.24307146	          0.13546997	          0.42815835	          0.55333540	          0.22246764	          0.05000000	          0.08533595	          0.08207688	          0.19513225	          0.06415197	          0.05000039	          0.23476977	          0.14297562	          0.06957752	          0.05148460	          0.05000015	          0.05000026	          0.05842048	          0.07111990	          0.21544412	          0.28985691	          0.06319814	          0.05898361	          0.06295294	          0.22694067	          0.09615845	          0.05000110	          0.05000355	          0.05000335	          0.05310181	          0.28630656	          0.50589558	          0.05898200	          0.05005702	          0.05000008	          0.18294322	          0.13473323	          0.14192298	          0.13473212	          0.23695046	          0.30834742	          0.20108880	          0.18502807	          0.17717687	          0.24477252	          0.05000003	          0.05673226	          0.13960500	          0.05000003	          0.05000007	          0.05000011	          0.06514444	          0.05898209	          0.05898210	
          1.64911209	         -2.88465148	          1.98009491	         -6.75855812	          2.07105398	          0.85122073	          0.00212309	         30.58648596	          3.38593541	         -2.79919282	        -18.27567035	         -2.49097148	          7.47366375	        -20.04373065	        -13.87016014	         -0.94966603	         -3.69869991	         -4.29754840	         13.40828654	         -0.32039142	         -2.54486251	          0.39676085	         27.93462104	         -0.71722596	         -0.59894214	          1.98621943	        -10.65939688	        -13.63930158	          8.26740147	          4.40514708	        -13.56454826	         16.84741976	         15.98448079	         37.21478908	         86.51662706	         86.51662706	          0.28092561	          0.33740998	          0.46366425	          0.36189201	          0.26634184	          0.31462884	          0.07865464	          0.08661570	          0.15337259	          0.06957754	          0.05000033	          0.06957795	          0.16828139	          0.23513972	          0.19090857	          0.15620496	          0.05000012	          0.05898079	          0.10067801	          0.26164298	          0.21748137	          0.13457740	          0.05000068	          0.05000015	          0.27011318	          0.11020906	          0.22209175	          0.05000003	          0.25543387	          0.27311686	          0.23332393	          0.05000005	          0.05000010	          0.05416629	          0.05274111	          0.05000023	          0.05000062	          0.62248254	          0.20605531	          0.11483992	          0.37130280	          0.58976005	          0.32735599	          0.05631266	          0.08207687	          0.06957780	          0.26557728	          0.05438259	          0.05000000	          0.29225216	          0.12120259	          0.05898192	          0.07016152	          0.05000005	          0.05000004	          0.05000005	          0.06028949	          0.18271679	          0.24571617	          0.05357408	          0.05000157	          0.05336628	          0.26404323	          0.08151520	          0.05000013	          0.05000029	          0.05000018	          0.05000013	          0.24270637	          0.47194338	          0.05000001	          0.05000007	          0.05000002	          0.15508371	          0.11421539	          0.12031025	          0.11421445	          0.20086645	          0.26139071	          0.17046597	          0.15685107	          0.15019552	          0.20749736	          0.08690987	          0.14723858	          0.15352287	          0.20108710	          0.17252323	          0.10257943	          0.09054806	          0.05000001	          0.05000003	
